<svg id="Layer_1" data-name="Layer 1" xmlns="http://www.w3.org/2000/svg" viewBox="0 0 66.17 66"><defs><style>.cls-1{fill:none;stroke:#283039;stroke-linecap:round;stroke-linejoin:round;stroke-width:2px;}</style></defs><title>icon-house-hand</title><polyline class="cls-1" points="23.32 23.32 23.32 37.27 48.43 37.27 48.43 23.32"/><polyline class="cls-1" points="14.95 19.14 35.88 1 56.8 19.14"/><polyline class="cls-1" points="44.25 1 51.22 1 51.22 7.98"/><rect class="cls-1" x="1" y="40.06" width="11.16" height="22.32"/><path class="cls-1" d="M12.16,58.37c29.3,9.77,19.53,9.77,53-7-3-3-5.31-3.66-8.37-2.79l-12,3.81"/><path class="cls-1" d="M12.16,42.85h8.37c6.56,0,11.16,5.58,12.56,5.58h9.77c2.79,0,2.79,5.58,0,5.58H27.51"/><rect class="cls-1" x="31.69" y="26.11" width="8.37" height="11.16"/></svg>