<svg xmlns="http://www.w3.org/2000/svg" viewBox="0 0 59.4 75.64"><defs><style>.cls-1{fill:none;stroke:#53dd6c;stroke-linecap:round;stroke-linejoin:round;stroke-width:2px;}</style></defs><title>icon-flyer</title><g id="Layer_2" data-name="Layer 2"><g id="Layer_1-2" data-name="Layer 1"><polygon class="cls-1" points="58.4 63.73 12.04 63.73 12.04 1 42.04 1 58.4 17.36 58.4 63.73"/><polyline class="cls-1" points="42.04 1 42.04 17.36 58.4 17.36"/><rect class="cls-1" x="20.22" y="22.82" width="30" height="32.73"/><line class="cls-1" x1="20.22" y1="31" x2="31.13" y2="31"/><line class="cls-1" x1="26.33" y1="36.15" x2="44.3" y2="36.15"/><line class="cls-1" x1="20.22" y1="50.12" x2="50.22" y2="50.12"/><line class="cls-1" x1="31.13" y1="22.82" x2="31.13" y2="31"/><polyline class="cls-1" points="52.95 63.73 52.95 69.19 6.46 69.19 6.46 6.46 11.91 6.46"/><polyline class="cls-1" points="47.49 69.19 47.49 74.64 1 74.64 1 11.91 6.46 11.91"/><line class="cls-1" x1="26.33" y1="42.88" x2="44.3" y2="42.88"/></g></g></svg>