<svg id="Layer_1" data-name="Layer 1" xmlns="http://www.w3.org/2000/svg" viewBox="0 0 308.96 231.83"><defs><style>.cls-1{opacity:0.6;}.cls-2{fill:#fff;}</style></defs><title>icon-blockquote-house-bg</title><g class="cls-1"><path class="cls-2" d="M215.36,231.83H93.6A10.85,10.85,0,0,1,82.75,221V152.54a10.85,10.85,0,1,1,21.69,0v57.6H204.52v-57.6a10.85,10.85,0,1,1,21.69,0V221A10.85,10.85,0,0,1,215.36,231.83Z"/><path class="cls-2" d="M66.26,136.11a10.85,10.85,0,0,1-6.32-19.67l88.23-63.11a10.85,10.85,0,0,1,12.62,0L249,116.43a10.85,10.85,0,0,1-12.62,17.64L154.48,75.49,72.56,134.09A10.8,10.8,0,0,1,66.26,136.11Z"/><path class="cls-2" d="M254.8,231.83a10.85,10.85,0,0,1-.19-21.69l20.64-.37A132.83,132.83,0,0,0,154.48,21.69,132.87,132.87,0,0,0,33.71,209.77l20.65.37A10.85,10.85,0,0,1,54,231.83l-27.28-.49a10.85,10.85,0,0,1-9.44-5.85,154.48,154.48,0,1,1,274.45,0,10.84,10.84,0,0,1-9.64,5.86H282l-27,.49Z"/></g></svg>