<svg id="Layer_1" data-name="Layer 1" xmlns="http://www.w3.org/2000/svg" viewBox="0 0 45.21 43.2"><defs><style>.cls-1{fill:#283039;fill-rule:evenodd;}</style></defs><title>icon-equal-housing</title><polygon class="cls-1" points="5.19 35.3 3.42 35.3 3.42 36 5.04 36 5.04 36.59 3.42 36.59 3.42 37.45 5.27 37.45 5.27 38.05 2.74 38.05 2.74 34.71 5.19 34.71 5.19 35.3 5.19 35.3"/><path class="cls-1" d="M7.42,37.14l.33.31a.81.81,0,0,1-.38.09c-.38,0-.91-.23-.91-1.16s.53-1.16.91-1.16.9.23.9,1.16a1.49,1.49,0,0,1-.15.72l-.35-.33-.36.37ZM9,37.91l-.36-.34A1.87,1.87,0,0,0,9,36.38a1.55,1.55,0,0,0-1.6-1.75,1.55,1.55,0,0,0-1.6,1.75,1.55,1.55,0,0,0,1.6,1.75,1.72,1.72,0,0,0,.85-.22l.4.38L9,37.91Z"/><path class="cls-1" d="M12.26,36.88c0,.88-.53,1.25-1.37,1.25a1.43,1.43,0,0,1-1.06-.4,1.21,1.21,0,0,1-.26-.81V34.71h.71v2.16c0,.47.27.67.59.67.48,0,.67-.23.67-.64V34.71h.71v2.17Z"/><path class="cls-1" d="M14.13,35.47h0l.41,1.32H13.7l.43-1.32Zm-.61,1.89h1.23L15,38h.76l-1.17-3.33h-.8L12.55,38h.73l.23-.69Z"/><polygon class="cls-1" points="16.95 37.44 18.61 37.44 18.61 38.05 16.25 38.05 16.25 34.71 16.95 34.71 16.95 37.44 16.95 37.44"/><polygon class="cls-1" points="21.25 36.55 21.25 38.05 20.55 38.05 20.55 34.71 21.25 34.71 21.25 35.98 22.55 35.98 22.55 34.71 23.24 34.71 23.24 38.05 22.55 38.05 22.55 36.55 21.25 36.55 21.25 36.55"/><path class="cls-1" d="M24.57,36.38c0-.93.53-1.16.9-1.16s.91.23.91,1.16-.53,1.16-.91,1.16-.9-.23-.9-1.16Zm-.7,0a1.61,1.61,0,1,0,3.2,0,1.61,1.61,0,1,0-3.2,0Z"/><path class="cls-1" d="M30.4,36.88c0,.88-.53,1.25-1.37,1.25a1.43,1.43,0,0,1-1.06-.4,1.21,1.21,0,0,1-.26-.81V34.71h.71v2.16a.58.58,0,0,0,.6.67c.48,0,.67-.23.67-.64V34.71h.71v2.17Z"/><path class="cls-1" d="M31.67,37c0,.19.1.54.71.54.33,0,.7-.08.7-.43s-.25-.33-.6-.41l-.36-.08c-.54-.13-1.06-.24-1.06-1,0-.37.2-1,1.28-1s1.3.67,1.3,1.08H33c0-.15-.07-.5-.68-.5-.26,0-.58.1-.58.4s.21.31.35.35l.81.2c.45.11.87.3.87.9,0,1-1,1.09-1.31,1.09-1.21,0-1.42-.7-1.42-1.11Z"/><polygon class="cls-1" points="35.01 38.05 34.32 38.05 34.32 34.71 35.01 34.71 35.01 38.05 35.01 38.05"/><polygon class="cls-1" points="37.79 34.71 38.44 34.71 38.44 38.05 37.74 38.05 36.39 35.67 36.38 35.67 36.38 38.05 35.73 38.05 35.73 34.71 36.46 34.71 37.78 37.03 37.79 37.03 37.79 34.71 37.79 34.71"/><path class="cls-1" d="M40.77,36.25h1.39V38H41.7l-.07-.42a1.23,1.23,0,0,1-1,.5,1.55,1.55,0,0,1-1.53-1.74,1.6,1.6,0,0,1,1.63-1.76,1.32,1.32,0,0,1,1.46,1.12h-.7a.73.73,0,0,0-.73-.55c-.5,0-1,.34-1,1.2s.5,1.15,1,1.15a.82.82,0,0,0,.81-.73h-.77v-.56Z"/><path class="cls-1" d="M3.29,41.44c0-.93.53-1.17.9-1.17s.9.23.9,1.17-.53,1.17-.9,1.17-.9-.23-.9-1.17Zm-.7,0a1.56,1.56,0,0,0,1.6,1.76,1.76,1.76,0,0,0,0-3.51,1.55,1.55,0,0,0-1.6,1.75Z"/><path class="cls-1" d="M7.7,41.33v-1h.55c.43,0,.61.14.61.46,0,.15,0,.52-.52.52Zm0,.58h.8a1,1,0,0,0,1.06-1.06,1,1,0,0,0-1-1.07H7v3.33h.7v-1.2Z"/><path class="cls-1" d="M11.45,41.33v-1H12c.43,0,.61.14.61.46,0,.15,0,.52-.52.52Zm0,.58h.8a1,1,0,0,0,1.06-1.06,1,1,0,0,0-1-1.07H10.75v3.33h.7v-1.2Z"/><path class="cls-1" d="M15,41.44c0-.93.53-1.17.91-1.17s.9.23.9,1.17-.53,1.17-.9,1.17S15,42.37,15,41.44Zm-.7,0A1.61,1.61,0,1,0,16,39.69a1.56,1.56,0,0,0-1.6,1.75Z"/><path class="cls-1" d="M19.45,41.24v-.89h.87c.41,0,.49.26.49.44,0,.33-.18.45-.54.45Zm-.68,1.87h.68V41.8h.72c.52,0,.54.18.54.63a2.25,2.25,0,0,0,.07.67h.77V43c-.15-.05-.15-.18-.15-.66s-.15-.72-.42-.85a.79.79,0,0,0,.51-.79.94.94,0,0,0-1-.94H18.76v3.33Z"/><polygon class="cls-1" points="24.09 43.11 23.4 43.11 23.4 40.37 22.39 40.37 22.39 39.78 25.1 39.78 25.1 40.37 24.09 40.37 24.09 43.11 24.09 43.11"/><path class="cls-1" d="M28.83,41.94c0,.88-.53,1.26-1.37,1.26a1.43,1.43,0,0,1-1.06-.41,1.2,1.2,0,0,1-.26-.81V39.78h.71v2.16a.58.58,0,0,0,.59.67c.48,0,.67-.23.67-.64V39.78h.71v2.17Z"/><polygon class="cls-1" points="32.2 39.78 32.85 39.78 32.85 43.11 32.16 43.11 30.8 40.73 30.79 40.73 30.79 43.11 30.14 43.11 30.14 39.78 30.87 39.78 32.2 42.09 32.2 42.09 32.2 39.78 32.2 39.78"/><polygon class="cls-1" points="34.82 43.11 34.12 43.11 34.12 39.78 34.82 39.78 34.82 43.11 34.82 43.11"/><polygon class="cls-1" points="37.53 43.11 36.84 43.11 36.84 40.37 35.83 40.37 35.83 39.78 38.54 39.78 38.54 40.37 37.53 40.37 37.53 43.11 37.53 43.11"/><polygon class="cls-1" points="41.17 43.11 40.48 43.11 40.48 41.85 39.33 39.78 40.15 39.78 40.84 41.22 41.5 39.78 42.29 39.78 41.17 41.86 41.17 43.11 41.17 43.11"/><path class="cls-1" d="M22.44,0,0,11v5.19H2.51V31.81H42.19V16.24h3V11L22.44,0Zm14.9,27.12h-30V12.89l15.07-7.7,14.9,7.7V27.12Z"/><polygon class="cls-1" points="29.3 17.91 15.4 17.91 15.4 12.89 29.3 12.89 29.3 17.91 29.3 17.91"/><polygon class="cls-1" points="29.3 25.11 15.4 25.11 15.4 20.09 29.3 20.09 29.3 25.11 29.3 25.11"/></svg>