<svg id="Layer_1" data-name="Layer 1" xmlns="http://www.w3.org/2000/svg" viewBox="0 0 22.03 20.89"><defs><style>.cls-1{fill:none;stroke:#39a9db;stroke-miterlimit:10;}</style></defs><title>icon-linkedinArtboard 1</title><path class="cls-1" d="M5.53,20.39h-5v-13h5ZM3,5.39H3A2.44,2.44,0,0,1,.5,2.91,2.4,2.4,0,0,1,3,.5,2.42,2.42,0,0,1,5.57,2.95,2.43,2.43,0,0,1,3,5.39Zm11.51,6a2,2,0,0,0-2,2v7h-5s.06-12,0-13h5V8.88a6.19,6.19,0,0,1,3.94-1.44c3,0,5.06,2.14,5.06,6.3v6.65h-5v-7A2,2,0,0,0,14.53,11.39Z"/></svg>