<svg xmlns="http://www.w3.org/2000/svg" viewBox="0 0 77.52 77.36"><defs><style>.cls-1{fill:none;stroke:#53dd6c;stroke-linecap:round;stroke-linejoin:round;stroke-width:2px;}</style></defs><title>icon-locations</title><g id="Layer_2" data-name="Layer 2"><g id="Layer_1-2" data-name="Layer 1"><line class="cls-1" x1="40.41" y1="71.96" x2="40.41" y2="76.36"/><path class="cls-1" d="M56.54,39.7C55.08,48.38,40.41,63.16,40.41,72c0-8.8-14.28-22.17-16.13-32.27s4.4-19,16.13-19S58.25,29.5,56.54,39.7Z"/><circle class="cls-1" cx="40.41" cy="36.1" r="7.39"/><line class="cls-1" x1="60.1" y1="52.27" x2="60.1" y2="56.66"/><path class="cls-1" d="M44.2,21c-.09-.35-.17-.69-.23-1C42.14,10,48.37,1,60.1,1S77.94,9.8,76.23,20C74.78,28.68,60.1,43.47,60.1,52.27c0-3.08-1.74-6.7-4.08-10.56"/><circle class="cls-1" cx="60.1" cy="16.41" r="7.39"/><line class="cls-1" x1="17.45" y1="52.27" x2="17.45" y2="56.66"/><path class="cls-1" d="M24.08,37.45c-3.51,5.42-6.63,10.75-6.63,14.82C17.45,43.47,3.16,30.1,1.32,20S5.71,1,17.45,1,35.29,9.8,33.58,20A12.85,12.85,0,0,1,33,22.12"/><circle class="cls-1" cx="17.45" cy="16.41" r="7.39"/></g></g></svg>