<svg xmlns="http://www.w3.org/2000/svg" viewBox="0 0 142.35 28.31"><defs><style>.cls-1{fill:#495867;}.cls-2{fill:#39a9db;}.cls-3{fill:#53dd6c;}</style></defs><title>icon-logo-footer</title><g id="Layer_2" data-name="Layer 2"><g id="Layer_1-2" data-name="Layer 1"><path class="cls-1" d="M46.65,22.19a.46.46,0,0,1-.5-.32l-4.26-8.65h-3.8c-.14,0-.18,0-.18.18v8.42a.31.31,0,0,1-.32.32H34.38a.31.31,0,0,1-.32-.32V.32A.31.31,0,0,1,34.38,0h8.56C47,0,50,2.72,50,6.61a6.35,6.35,0,0,1-4.21,6.11l4.66,9a.25.25,0,0,1-.23.41H46.65ZM46.24,6.61a3.11,3.11,0,0,0-3.4-3.17H38.14c-.14,0-.18,0-.18.18V9.51c0,.14,0,.18.18.18h4.71A3,3,0,0,0,46.24,6.61Z"/><path class="cls-1" d="M60.92,22.19a.31.31,0,0,1-.32-.32V20.74h0c-.77,1.09-2.22,1.81-4.44,1.81-2.85,0-5.3-1.49-5.3-4.8s2.4-5,6.3-5h3.22c.14,0,.18,0,.18-.18v-.77c0-1.81-.86-2.63-3.49-2.63a5.41,5.41,0,0,0-3.58,1.09.3.3,0,0,1-.45,0L51.81,8.06a.33.33,0,0,1,0-.41,9.18,9.18,0,0,1,5.57-1.54c4.8,0,6.57,1.63,6.57,5.48V21.88a.31.31,0,0,1-.32.32H60.92Zm-.36-5.3V15.67c0-.14,0-.18-.18-.18H57.75c-2.36,0-3.4.63-3.4,2.13,0,1.31,1,1.95,2.72,1.95C59.29,19.57,60.55,18.71,60.55,16.89Z"/><path class="cls-1" d="M71.29,22.37c-3.17,0-4.35-1.54-4.35-4.62V9.47c0-.14,0-.18-.18-.18h-1A.31.31,0,0,1,65.4,9V6.79a.31.31,0,0,1,.32-.32h1c.14,0,.18,0,.18-.18V2a.31.31,0,0,1,.32-.32h3a.31.31,0,0,1,.32.32V6.3c0,.14,0,.18.18.18h2.08a.31.31,0,0,1,.32.32V9a.31.31,0,0,1-.32.32H70.74c-.14,0-.18,0-.18.18v8.15c0,1.09.45,1.45,1.45,1.45h.82a.31.31,0,0,1,.32.32V22a.31.31,0,0,1-.32.32H71.29Z"/><path class="cls-1" d="M74.91,18.16a12.44,12.44,0,0,1-.54-3.85,11.67,11.67,0,0,1,.54-3.9,6.36,6.36,0,0,1,6.43-4.35,6.43,6.43,0,0,1,6.48,4.35,13.66,13.66,0,0,1,.54,4.71.32.32,0,0,1-.36.32H78.31c-.14,0-.18,0-.18.18a3.46,3.46,0,0,0,.23,1.22,3.47,3.47,0,0,0,3.53,2.4,4.63,4.63,0,0,0,3.67-1.49.32.32,0,0,1,.5,0L88,19.38c.18.14.18.27,0,.45a8.23,8.23,0,0,1-6.48,2.67C78.13,22.55,75.77,20.92,74.91,18.16Zm9.47-6.93a3.35,3.35,0,0,0-6.16,0A4,4,0,0,0,78,12.59c0,.14,0,.18.18.18h6.16c.14,0,.18,0,.18-.18A3.79,3.79,0,0,0,84.38,11.23Z"/><path class="cls-2" d="M92.53,22.19a.31.31,0,0,1-.32-.32V.36A.31.31,0,0,1,92.53,0h7.38c4.26,0,6.79,2.4,6.79,6.3s-2.58,6.25-6.79,6.25H94.25c-.14,0-.18,0-.18.18v9.1a.31.31,0,0,1-.32.32H92.53ZM104.89,6.3c0-2.85-1.77-4.53-5-4.53H94.25c-.14,0-.18,0-.18.18V10.6c0,.14,0,.18.18.18h5.62C103.13,10.78,104.89,9.15,104.89,6.3Z"/><path class="cls-2" d="M112.46,22.28c-2.36,0-3.22-1.09-3.22-3.67V.32a.31.31,0,0,1,.32-.32h1.09a.31.31,0,0,1,.32.32V18.57c0,1.54.5,2,1.68,2h.54a.31.31,0,0,1,.32.32v1a.31.31,0,0,1-.32.32Z"/><path class="cls-2" d="M125.86,22.19a.31.31,0,0,1-.32-.32V20.06h0A4.8,4.8,0,0,1,121,22.55c-3.44,0-5.39-2.17-5.39-5.89V7a.31.31,0,0,1,.32-.32H117a.31.31,0,0,1,.32.32v9.19c0,3.13,1.31,4.66,4,4.66a4,4,0,0,0,4.17-4.35V7a.31.31,0,0,1,.32-.32h1.09a.31.31,0,0,1,.32.32v14.9a.31.31,0,0,1-.32.32h-1Z"/><path class="cls-2" d="M131,26.13a.34.34,0,0,1,0-.45l.82-.72a.3.3,0,0,1,.45,0,4.93,4.93,0,0,0,3.85,1.68c2.76,0,4.44-1.36,4.44-4.71V19.7h0c-.72,1.54-2.08,2.54-4.62,2.54a5.06,5.06,0,0,1-5.16-3.71,13.32,13.32,0,0,1-.54-4.26A13.51,13.51,0,0,1,130.8,10,5.09,5.09,0,0,1,136,6.25c2.49,0,3.9,1,4.62,2.54h0V6.88a.31.31,0,0,1,.32-.32H142a.31.31,0,0,1,.32.32V21.83c0,4.35-2.36,6.48-6.25,6.48A6.2,6.2,0,0,1,131,26.13Zm9.24-8.29a11.56,11.56,0,0,0,.41-3.53,10.29,10.29,0,0,0-.41-3.53,4.09,4.09,0,0,0-7.7,0,10.91,10.91,0,0,0-.45,3.58,10.44,10.44,0,0,0,.45,3.53,3.68,3.68,0,0,0,3.8,2.72A3.91,3.91,0,0,0,140.22,17.84Z"/><path class="cls-3" d="M20.2,22.1H8.74a1,1,0,0,1-1-1V14.67a1,1,0,1,1,2,0v5.43h9.42V14.67a1,1,0,1,1,2,0v6.43A.94.94,0,0,1,20.2,22.1Z"/><path class="cls-3" d="M6.16,13.09a1,1,0,0,1-.82-.41,1,1,0,0,1,.23-1.4l8.29-5.93a1,1,0,0,1,1.18,0l8.29,5.93a1,1,0,1,1-1.18,1.63l-7.7-5.53-7.7,5.53A.84.84,0,0,1,6.16,13.09Z"/><path class="cls-1" d="M23.91,22.1a1,1,0,0,1-1-1,1,1,0,0,1,1-1l1.95,0A12.12,12.12,0,0,0,27,14.81a12.46,12.46,0,0,0-24.91,0A12.12,12.12,0,0,0,3.22,20l1.95,0a1,1,0,0,1,0,2l-2.58,0a1.09,1.09,0,0,1-.91-.54A14.75,14.75,0,0,1,0,14.86a14.49,14.49,0,0,1,29,0,14.19,14.19,0,0,1-1.63,6.66,1,1,0,0,1-.91.54l-2.54,0Z"/></g></g></svg>