<?xml version="1.0" encoding="utf-8"?>
<!-- Generator: Adobe Illustrator 21.0.2, SVG Export Plug-In . SVG Version: 6.00 Build 0)  -->
<svg version="1.1" id="Layer_1" xmlns="http://www.w3.org/2000/svg" xmlns:xlink="http://www.w3.org/1999/xlink" x="0px" y="0px"
	 viewBox="0 0 230.8 46" style="enable-background:new 0 0 230.8 46;" xml:space="preserve">
<style type="text/css">
	.st0{fill:#FFFFFF;}
	.st1{fill:#39A9DB;}
	.st2{fill:#53DD6C;}
</style>
<g>
	<g>
		<path class="st0" d="M75.7,35.9c-0.4,0-0.6-0.2-0.8-0.5l-6.9-14h-6.2c-0.2,0-0.3,0.1-0.3,0.3v13.7c0,0.3-0.2,0.5-0.5,0.5h-5.2
			c-0.3,0-0.5-0.2-0.5-0.5V0.5c0-0.3,0.2-0.5,0.5-0.5h13.9c6.6,0,11.5,4.4,11.5,10.7c0,4.7-2.7,8.4-6.8,9.9l7.6,14.6
			c0.2,0.4,0,0.7-0.4,0.7H75.7z M75,10.7c0-3.1-2.2-5.1-5.5-5.1h-7.7c-0.2,0-0.3,0.1-0.3,0.3v9.6c0,0.2,0.1,0.3,0.3,0.3h7.7
			C72.8,15.8,75,13.8,75,10.7z"/>
		<path class="st0" d="M98.8,35.9c-0.3,0-0.5-0.2-0.5-0.5v-1.9h-0.1c-1.2,1.7-3.6,3-7.2,3c-4.7,0-8.6-2.4-8.6-7.8
			c0-5.5,3.9-8.1,10.2-8.1h5.2c0.2,0,0.3-0.1,0.3-0.3v-1.2c0-2.9-1.4-4.2-5.7-4.2c-2.9,0-4.6,0.8-5.8,1.7c-0.3,0.2-0.6,0.2-0.7-0.1
			l-2-3.5c-0.2-0.3-0.1-0.5,0.1-0.7c2.1-1.5,4.9-2.5,9-2.5c7.8,0,10.6,2.6,10.6,8.9v16.6c0,0.3-0.2,0.5-0.5,0.5H98.8z M98.2,27.4v-2
			c0-0.2-0.1-0.3-0.3-0.3h-4.2c-3.8,0-5.5,1.1-5.5,3.4c0,2.1,1.5,3.2,4.4,3.2C96.2,31.7,98.2,30.3,98.2,27.4z"/>
		<path class="st0" d="M115.6,36.3c-5.1,0-7.1-2.5-7.1-7.5V15.4c0-0.2-0.1-0.3-0.3-0.3h-1.7c-0.3,0-0.5-0.2-0.5-0.5V11
			c0-0.3,0.2-0.5,0.5-0.5h1.7c0.2,0,0.3-0.1,0.3-0.3v-7c0-0.3,0.2-0.5,0.5-0.5h4.9c0.3,0,0.5,0.2,0.5,0.5v7c0,0.2,0.1,0.3,0.3,0.3
			h3.4c0.3,0,0.5,0.2,0.5,0.5v3.5c0,0.3-0.2,0.5-0.5,0.5h-3.4c-0.2,0-0.3,0.1-0.3,0.3v13.2c0,1.8,0.7,2.4,2.4,2.4h1.3
			c0.3,0,0.5,0.2,0.5,0.5v4.2c0,0.3-0.2,0.5-0.5,0.5H115.6z"/>
		<path class="st0" d="M121.5,29.4c-0.5-1.6-0.9-3.6-0.9-6.2c0-2.6,0.3-4.7,0.8-6.3c1.4-4.4,5.3-7,10.4-7c5.2,0,9,2.7,10.5,7
			c0.6,1.8,0.8,3.5,0.8,7.7c0,0.3-0.2,0.5-0.6,0.5h-15.7c-0.2,0-0.3,0.1-0.3,0.3c0,0.7,0.2,1.4,0.4,2c0.8,2.5,2.9,3.9,5.7,3.9
			c2.9,0,4.7-1.1,6-2.4c0.3-0.3,0.5-0.3,0.8-0.1l3.1,2.7c0.3,0.2,0.3,0.5,0.1,0.7c-2.2,2.5-5.8,4.3-10.5,4.3
			C126.7,36.5,122.9,33.9,121.5,29.4z M136.8,18.2c-0.7-2.1-2.6-3.3-5-3.3c-2.4,0-4.3,1.2-5,3.3c-0.2,0.6-0.3,1.3-0.3,2.2
			c0,0.2,0.1,0.3,0.3,0.3h10c0.2,0,0.3-0.1,0.3-0.3C137.2,19.5,137,18.8,136.8,18.2z"/>
		<path class="st1" d="M150.1,35.9c-0.3,0-0.5-0.2-0.5-0.5V0.5c0-0.3,0.2-0.5,0.5-0.5h12c6.9,0,11,3.9,11,10.2s-4.2,10.1-11,10.1
			h-9.2c-0.2,0-0.3,0.1-0.3,0.3v14.7c0,0.3-0.2,0.5-0.5,0.5H150.1z M170.1,10.2c0-4.6-2.9-7.3-8.1-7.3h-9.1c-0.2,0-0.3,0.1-0.3,0.3
			v14c0,0.2,0.1,0.3,0.3,0.3h9.1C167.2,17.5,170.1,14.8,170.1,10.2z"/>
		<path class="st1" d="M182.3,36.1c-3.8,0-5.2-1.7-5.2-5.9V0.5c0-0.3,0.2-0.5,0.5-0.5h1.8c0.3,0,0.5,0.2,0.5,0.5v29.5
			c0,2.5,0.8,3.3,2.7,3.3h0.9c0.3,0,0.5,0.2,0.5,0.5v1.7c0,0.3-0.2,0.5-0.5,0.5H182.3z"/>
		<path class="st1" d="M204.1,35.9c-0.3,0-0.5-0.2-0.5-0.5v-3h-0.1c-1.3,2.5-3.9,4-7.3,4c-5.6,0-8.7-3.5-8.7-9.6V11.3
			c0-0.3,0.2-0.5,0.5-0.5h1.8c0.3,0,0.5,0.2,0.5,0.5v14.9c0,5.1,2.1,7.6,6.5,7.6c3.8,0,6.8-2.6,6.8-7V11.3c0-0.3,0.2-0.5,0.5-0.5
			h1.8c0.3,0,0.5,0.2,0.5,0.5v24.2c0,0.3-0.2,0.5-0.5,0.5H204.1z"/>
		<path class="st1" d="M212.4,42.3c-0.2-0.3-0.2-0.5,0.1-0.7l1.3-1.2c0.3-0.2,0.5-0.2,0.7,0.1c1.5,1.7,3.6,2.7,6.2,2.7
			c4.5,0,7.2-2.2,7.2-7.7v-3.6h-0.1c-1.2,2.5-3.4,4.1-7.5,4.1c-4.2,0-7.1-2.2-8.4-6c-0.6-1.8-0.8-3.9-0.8-6.9c0-3,0.3-5.1,0.8-6.9
			c1.3-3.9,4.2-6.1,8.4-6.1c4.1,0,6.3,1.6,7.5,4.1h0.1v-3.1c0-0.3,0.2-0.5,0.5-0.5h1.8c0.3,0,0.5,0.2,0.5,0.5v24.2
			c0,7-3.8,10.5-10.1,10.5C217.1,46,213.7,44.4,212.4,42.3z M227.3,28.9c0.5-1.4,0.6-3.1,0.6-5.8c0-2.6-0.2-4.3-0.6-5.8
			c-1.1-3.2-3.4-4.4-6.3-4.4c-3.1,0-5.2,1.5-6.2,4.4c-0.5,1.5-0.7,3.3-0.7,5.8c0,2.5,0.2,4.3,0.7,5.8c1,2.9,3.1,4.4,6.2,4.4
			C223.9,33.4,226.3,32,227.3,28.9z"/>
	</g>
	<path class="st2" d="M32.8,35.8H14.3c-0.9,0-1.7-0.7-1.7-1.7V23.7c0-0.9,0.7-1.7,1.7-1.7s1.7,0.7,1.7,1.7v8.8h15.2v-8.8
		c0-0.9,0.7-1.7,1.7-1.7s1.7,0.7,1.7,1.7v10.4C34.5,35.1,33.7,35.8,32.8,35.8z"/>
	<path class="st2" d="M10.1,21.2c-0.5,0-1-0.2-1.3-0.7c-0.5-0.7-0.4-1.8,0.4-2.3l13.4-9.6c0.6-0.4,1.3-0.4,1.9,0l13.4,9.6
		c0.7,0.5,0.9,1.6,0.4,2.3c-0.5,0.7-1.6,0.9-2.3,0.4L23.5,12l-12.5,8.9C10.8,21.1,10.4,21.2,10.1,21.2z"/>
	<path class="st0" d="M43,35.8h-4.2c-0.9,0-1.7-0.7-1.7-1.7s0.7-1.7,1.7-1.7h3.1c1.2-2.6,1.8-5.5,1.8-8.4c0-11.2-9.1-20.2-20.2-20.2
		S3.3,12.9,3.3,24c0,2.9,0.6,5.8,1.8,8.4h3.1c0.9,0,1.7,0.7,1.7,1.7s-0.7,1.7-1.7,1.7H4.1c-0.6,0-1.2-0.3-1.5-0.9
		C0.9,31.6,0,27.8,0,24c0-13,10.6-23.5,23.5-23.5S47.1,11.1,47.1,24c0,3.8-0.9,7.5-2.6,10.9C44.1,35.4,43.6,35.8,43,35.8z"/>
</g>
</svg>
