<svg xmlns="http://www.w3.org/2000/svg" viewBox="0 0 142.35 28.31"><defs><style>.cls-1{fill:#495867}.cls-2{fill:#39a9db}.cls-3{fill:#53dd6c}</style></defs><title>icon-logo-footer</title><g id="Layer_2" data-name="Layer 2"><g id="Layer_1-2" data-name="Layer 1"><path class="cls-1" d="M46.65 22.19a.46.46 0 0 1-.5-.32l-4.26-8.65h-3.8c-.14 0-.18 0-.18.18v8.42a.31.31 0 0 1-.32.32h-3.21a.31.31 0 0 1-.32-.32V.32a.31.31 0 0 1 .32-.32h8.56C47 0 50 2.72 50 6.61a6.35 6.35 0 0 1-4.21 6.11l4.66 9a.25.25 0 0 1-.23.41h-3.57zm-.41-15.58a3.11 3.11 0 0 0-3.4-3.17h-4.7c-.14 0-.18 0-.18.18v5.89c0 .14 0 .18.18.18h4.71a3 3 0 0 0 3.39-3.08zm14.68 15.58a.31.31 0 0 1-.32-.32v-1.13c-.77 1.09-2.22 1.81-4.44 1.81-2.85 0-5.3-1.49-5.3-4.8s2.4-5 6.3-5h3.22c.14 0 .18 0 .18-.18v-.77c0-1.81-.86-2.63-3.49-2.63a5.41 5.41 0 0 0-3.58 1.09.3.3 0 0 1-.45 0l-1.23-2.2a.33.33 0 0 1 0-.41 9.18 9.18 0 0 1 5.57-1.54c4.8 0 6.57 1.63 6.57 5.48v10.29a.31.31 0 0 1-.32.32h-2.71zm-.36-5.3v-1.22c0-.14 0-.18-.18-.18h-2.63c-2.36 0-3.4.63-3.4 2.13 0 1.31 1 1.95 2.72 1.95 2.22 0 3.48-.86 3.48-2.68zm10.73 5.48c-3.17 0-4.35-1.54-4.35-4.62V9.47c0-.14 0-.18-.18-.18h-1A.31.31 0 0 1 65.4 9V6.79a.31.31 0 0 1 .32-.32h1c.14 0 .18 0 .18-.18V2a.31.31 0 0 1 .32-.32h3a.31.31 0 0 1 .32.32v4.3c0 .14 0 .18.18.18h2.08a.31.31 0 0 1 .32.32V9a.31.31 0 0 1-.32.32h-2.06c-.14 0-.18 0-.18.18v8.15c0 1.09.45 1.45 1.45 1.45h.82a.31.31 0 0 1 .32.32V22a.31.31 0 0 1-.32.32h-1.54zm3.62-4.21a12.44 12.44 0 0 1-.54-3.85 11.67 11.67 0 0 1 .54-3.9 6.36 6.36 0 0 1 6.43-4.35 6.43 6.43 0 0 1 6.48 4.35 13.66 13.66 0 0 1 .54 4.71.32.32 0 0 1-.36.32h-9.69c-.14 0-.18 0-.18.18a3.46 3.46 0 0 0 .23 1.22 3.47 3.47 0 0 0 3.53 2.4 4.63 4.63 0 0 0 3.67-1.49.32.32 0 0 1 .5 0L88 19.38c.18.14.18.27 0 .45a8.23 8.23 0 0 1-6.48 2.67c-3.39.05-5.75-1.58-6.61-4.34zm9.47-6.93a3.35 3.35 0 0 0-6.16 0 4 4 0 0 0-.22 1.36c0 .14 0 .18.18.18h6.16c.14 0 .18 0 .18-.18a3.79 3.79 0 0 0-.14-1.36z"/><path class="cls-2" d="M92.53 22.19a.31.31 0 0 1-.32-.32V.36a.31.31 0 0 1 .32-.36h7.38c4.26 0 6.79 2.4 6.79 6.3s-2.58 6.25-6.79 6.25h-5.66c-.14 0-.18 0-.18.18v9.1a.31.31 0 0 1-.32.32h-1.22zM104.89 6.3c0-2.85-1.77-4.53-5-4.53h-5.64c-.14 0-.18 0-.18.18v8.65c0 .14 0 .18.18.18h5.62c3.26 0 5.02-1.63 5.02-4.48zm7.57 15.98c-2.36 0-3.22-1.09-3.22-3.67V.32a.31.31 0 0 1 .32-.32h1.09a.31.31 0 0 1 .32.32v18.25c0 1.54.5 2 1.68 2h.54a.31.31 0 0 1 .32.32v1a.31.31 0 0 1-.32.32zm13.4-.09a.31.31 0 0 1-.32-.32v-1.81a4.8 4.8 0 0 1-4.54 2.49c-3.44 0-5.39-2.17-5.39-5.89V7a.31.31 0 0 1 .32-.32H117a.31.31 0 0 1 .32.32v9.19c0 3.13 1.31 4.66 4 4.66a4 4 0 0 0 4.17-4.35V7a.31.31 0 0 1 .32-.32h1.09a.31.31 0 0 1 .32.32v14.9a.31.31 0 0 1-.32.32h-1zm5.14 3.94a.34.34 0 0 1 0-.45l.82-.72a.3.3 0 0 1 .45 0 4.93 4.93 0 0 0 3.85 1.68c2.76 0 4.44-1.36 4.44-4.71V19.7c-.72 1.54-2.08 2.54-4.62 2.54a5.06 5.06 0 0 1-5.16-3.71 13.32 13.32 0 0 1-.54-4.26 13.51 13.51 0 0 1 .56-4.27 5.09 5.09 0 0 1 5.2-3.75c2.49 0 3.9 1 4.62 2.54V6.88a.31.31 0 0 1 .32-.32H142a.31.31 0 0 1 .32.32v14.95c0 4.35-2.36 6.48-6.25 6.48a6.2 6.2 0 0 1-5.07-2.18zm9.24-8.29a11.56 11.56 0 0 0 .41-3.53 10.29 10.29 0 0 0-.41-3.53 4.09 4.09 0 0 0-7.7 0 10.91 10.91 0 0 0-.45 3.58 10.44 10.44 0 0 0 .45 3.53 3.68 3.68 0 0 0 3.8 2.72 3.91 3.91 0 0 0 3.88-2.77z"/><path class="cls-3" d="M20.2 22.1H8.74a1 1 0 0 1-1-1v-6.43a1 1 0 1 1 2 0v5.43h9.42v-5.43a1 1 0 1 1 2 0v6.43a.94.94 0 0 1-.96 1zM6.16 13.09a1 1 0 0 1-.82-.41 1 1 0 0 1 .23-1.4l8.29-5.93a1 1 0 0 1 1.18 0l8.29 5.93a1 1 0 1 1-1.18 1.63l-7.7-5.53-7.7 5.53a.84.84 0 0 1-.59.18z"/><path class="cls-1" d="M23.91 22.1a1 1 0 0 1-1-1 1 1 0 0 1 1-1h1.95A12.12 12.12 0 0 0 27 14.81a12.46 12.46 0 0 0-24.91 0A12.12 12.12 0 0 0 3.22 20h1.95a1 1 0 0 1 0 2H2.59a1.09 1.09 0 0 1-.91-.54A14.75 14.75 0 0 1 0 14.86a14.49 14.49 0 0 1 29 0 14.19 14.19 0 0 1-1.63 6.66 1 1 0 0 1-.91.54h-2.54z"/></g></g></svg>