<svg id="Layer_1" data-name="Layer 1" xmlns="http://www.w3.org/2000/svg" viewBox="0 0 45.21 43.2"><defs><style>.cls-1{fill:#283039;fill-rule:evenodd}</style></defs><title>icon-equal-housing</title><path class="cls-1" d="M5.19 35.3H3.42v.7h1.62v.59H3.42v.86h1.85v.6H2.74v-3.34h2.45v.59zm2.23 1.84l.33.31a.81.81 0 0 1-.38.09c-.38 0-.91-.23-.91-1.16s.53-1.16.91-1.16.9.23.9 1.16a1.49 1.49 0 0 1-.15.72l-.35-.33-.36.37zm1.58.77l-.36-.34A1.87 1.87 0 0 0 9 36.38a1.55 1.55 0 0 0-1.6-1.75 1.55 1.55 0 0 0-1.6 1.75 1.55 1.55 0 0 0 1.6 1.75 1.72 1.72 0 0 0 .85-.22l.4.38.35-.38zm3.26-1.03c0 .88-.53 1.25-1.37 1.25a1.43 1.43 0 0 1-1.06-.4 1.21 1.21 0 0 1-.26-.81v-2.21h.71v2.16c0 .47.27.67.59.67.48 0 .67-.23.67-.64v-2.19h.71v2.17zm1.87-1.41l.41 1.32h-.84l.43-1.32zm-.61 1.89h1.23L15 38h.76l-1.17-3.33h-.8L12.55 38h.73l.23-.69zm3.43.08h1.66v.61h-2.36v-3.34h.7v2.73zm4.3-.89v1.5h-.7v-3.34h.7v1.27h1.3v-1.27h.69v3.34h-.69v-1.5h-1.3zm3.32-.17c0-.93.53-1.16.9-1.16s.91.23.91 1.16-.53 1.16-.91 1.16-.9-.23-.9-1.16zm-.7 0a1.61 1.61 0 1 0 3.2 0 1.61 1.61 0 1 0-3.2 0zm6.53.5c0 .88-.53 1.25-1.37 1.25a1.43 1.43 0 0 1-1.06-.4 1.21 1.21 0 0 1-.26-.81v-2.21h.71v2.16a.58.58 0 0 0 .6.67c.48 0 .67-.23.67-.64v-2.19h.71v2.17zm1.27.12c0 .19.1.54.71.54.33 0 .7-.08.7-.43s-.25-.33-.6-.41l-.36-.08c-.54-.13-1.06-.24-1.06-1 0-.37.2-1 1.28-1s1.3.67 1.3 1.08H33c0-.15-.07-.5-.68-.5-.26 0-.58.1-.58.4s.21.31.35.35l.81.2c.45.11.87.3.87.9 0 1-1 1.09-1.31 1.09-1.21 0-1.42-.7-1.42-1.11zm3.34 1.05h-.69v-3.34h.69v3.34zm2.78-3.34h.65v3.34h-.7l-1.35-2.38h-.01v2.38h-.65v-3.34h.73l1.32 2.32h.01v-2.32zm2.98 1.54h1.39V38h-.46l-.07-.42a1.23 1.23 0 0 1-1 .5 1.55 1.55 0 0 1-1.53-1.74 1.6 1.6 0 0 1 1.63-1.76 1.32 1.32 0 0 1 1.46 1.12h-.7a.73.73 0 0 0-.73-.55c-.5 0-1 .34-1 1.2s.5 1.15 1 1.15a.82.82 0 0 0 .81-.73h-.77v-.56zM3.29 41.44c0-.93.53-1.17.9-1.17s.9.23.9 1.17-.53 1.17-.9 1.17-.9-.23-.9-1.17zm-.7 0a1.56 1.56 0 0 0 1.6 1.76 1.76 1.76 0 0 0 0-3.51 1.55 1.55 0 0 0-1.6 1.75zm5.11-.11v-1h.55c.43 0 .61.14.61.46 0 .15 0 .52-.52.52zm0 .58h.8a1 1 0 0 0 1.06-1.06 1 1 0 0 0-1-1.07H7v3.33h.7v-1.2zm3.75-.58v-1H12c.43 0 .61.14.61.46 0 .15 0 .52-.52.52zm0 .58h.8a1 1 0 0 0 1.06-1.06 1 1 0 0 0-1-1.07h-1.56v3.33h.7v-1.2zm3.55-.47c0-.93.53-1.17.91-1.17s.9.23.9 1.17-.53 1.17-.9 1.17-.91-.24-.91-1.17zm-.7 0a1.61 1.61 0 1 0 1.7-1.75 1.56 1.56 0 0 0-1.6 1.75zm5.15-.2v-.89h.87c.41 0 .49.26.49.44 0 .33-.18.45-.54.45zm-.68 1.87h.68V41.8h.72c.52 0 .54.18.54.63a2.25 2.25 0 0 0 .07.67h.77V43c-.15-.05-.15-.18-.15-.66s-.15-.72-.42-.85a.79.79 0 0 0 .51-.79.94.94 0 0 0-1-.94h-1.73v3.33zm5.32 0h-.69v-2.74h-1.01v-.59h2.71v.59h-1.01v2.74zm4.74-1.17c0 .88-.53 1.26-1.37 1.26a1.43 1.43 0 0 1-1.06-.41 1.2 1.2 0 0 1-.26-.81v-2.2h.71v2.16a.58.58 0 0 0 .59.67c.48 0 .67-.23.67-.64v-2.19h.71v2.17zm3.37-2.16h.65v3.33h-.69l-1.36-2.38h-.01v2.38h-.65v-3.33h.73l1.33 2.31v-2.31zm2.62 3.33h-.7v-3.33h.7v3.33zm2.71 0h-.69v-2.74h-1.01v-.59h2.71v.59h-1.01v2.74zm3.64 0h-.69v-1.26l-1.15-2.07h.82l.69 1.44.66-1.44h.79l-1.12 2.08v1.25zM22.44 0L0 11v5.19h2.51v15.62h39.68V16.24h3V11L22.44 0zm14.9 27.12h-30V12.89l15.07-7.7 14.9 7.7v14.23z"/><path class="cls-1" d="M29.3 17.91H15.4v-5.02h13.9v5.02zm0 7.2H15.4v-5.02h13.9v5.02z"/></svg>