<svg id="Layer_1" xmlns="http://www.w3.org/2000/svg" viewBox="0 0 230.8 46"><style>.st0{fill:#fff}.st1{fill:#39a9db}.st2{fill:#53dd6c}</style><path class="st0" d="M75.7 35.9c-.4 0-.6-.2-.8-.5l-6.9-14h-6.2c-.2 0-.3.1-.3.3v13.7c0 .3-.2.5-.5.5h-5.2c-.3 0-.5-.2-.5-.5V.5c0-.3.2-.5.5-.5h13.9c6.6 0 11.5 4.4 11.5 10.7 0 4.7-2.7 8.4-6.8 9.9L82 35.2c.2.4 0 .7-.4.7h-5.9zM75 10.7c0-3.1-2.2-5.1-5.5-5.1h-7.7c-.2 0-.3.1-.3.3v9.6c0 .2.1.3.3.3h7.7c3.3 0 5.5-2 5.5-5.1zm23.8 25.2c-.3 0-.5-.2-.5-.5v-1.9h-.1c-1.2 1.7-3.6 3-7.2 3-4.7 0-8.6-2.4-8.6-7.8 0-5.5 3.9-8.1 10.2-8.1h5.2c.2 0 .3-.1.3-.3v-1.2c0-2.9-1.4-4.2-5.7-4.2-2.9 0-4.6.8-5.8 1.7-.3.2-.6.2-.7-.1l-2-3.5c-.2-.3-.1-.5.1-.7 2.1-1.5 4.9-2.5 9-2.5 7.8 0 10.6 2.6 10.6 8.9v16.6c0 .3-.2.5-.5.5h-4.3zm-.6-8.5v-2c0-.2-.1-.3-.3-.3h-4.2c-3.8 0-5.5 1.1-5.5 3.4 0 2.1 1.5 3.2 4.4 3.2 3.6 0 5.6-1.4 5.6-4.3zm17.4 8.9c-5.1 0-7.1-2.5-7.1-7.5V15.4c0-.2-.1-.3-.3-.3h-1.7c-.3 0-.5-.2-.5-.5V11c0-.3.2-.5.5-.5h1.7c.2 0 .3-.1.3-.3v-7c0-.3.2-.5.5-.5h4.9c.3 0 .5.2.5.5v7c0 .2.1.3.3.3h3.4c.3 0 .5.2.5.5v3.5c0 .3-.2.5-.5.5h-3.4c-.2 0-.3.1-.3.3v13.2c0 1.8.7 2.4 2.4 2.4h1.3c.3 0 .5.2.5.5v4.2c0 .3-.2.5-.5.5h-2.5zm5.9-6.9c-.5-1.6-.9-3.6-.9-6.2s.3-4.7.8-6.3c1.4-4.4 5.3-7 10.4-7 5.2 0 9 2.7 10.5 7 .6 1.8.8 3.5.8 7.7 0 .3-.2.5-.6.5h-15.7c-.2 0-.3.1-.3.3 0 .7.2 1.4.4 2 .8 2.5 2.9 3.9 5.7 3.9 2.9 0 4.7-1.1 6-2.4.3-.3.5-.3.8-.1l3.1 2.7c.3.2.3.5.1.7-2.2 2.5-5.8 4.3-10.5 4.3-5.4 0-9.2-2.6-10.6-7.1zm15.3-11.2c-.7-2.1-2.6-3.3-5-3.3s-4.3 1.2-5 3.3c-.2.6-.3 1.3-.3 2.2 0 .2.1.3.3.3h10c.2 0 .3-.1.3-.3.1-.9-.1-1.6-.3-2.2z"/><path class="st1" d="M150.1 35.9c-.3 0-.5-.2-.5-.5V.5c0-.3.2-.5.5-.5h12c6.9 0 11 3.9 11 10.2s-4.2 10.1-11 10.1h-9.2c-.2 0-.3.1-.3.3v14.7c0 .3-.2.5-.5.5h-2zm20-25.7c0-4.6-2.9-7.3-8.1-7.3h-9.1c-.2 0-.3.1-.3.3v14c0 .2.1.3.3.3h9.1c5.2 0 8.1-2.7 8.1-7.3zm12.2 25.9c-3.8 0-5.2-1.7-5.2-5.9V.5c0-.3.2-.5.5-.5h1.8c.3 0 .5.2.5.5V30c0 2.5.8 3.3 2.7 3.3h.9c.3 0 .5.2.5.5v1.7c0 .3-.2.5-.5.5h-1.2zm21.8-.2c-.3 0-.5-.2-.5-.5v-3h-.1c-1.3 2.5-3.9 4-7.3 4-5.6 0-8.7-3.5-8.7-9.6V11.3c0-.3.2-.5.5-.5h1.8c.3 0 .5.2.5.5v14.9c0 5.1 2.1 7.6 6.5 7.6 3.8 0 6.8-2.6 6.8-7V11.3c0-.3.2-.5.5-.5h1.8c.3 0 .5.2.5.5v24.2c0 .3-.2.5-.5.5h-1.8zm8.3 6.4c-.2-.3-.2-.5.1-.7l1.3-1.2c.3-.2.5-.2.7.1 1.5 1.7 3.6 2.7 6.2 2.7 4.5 0 7.2-2.2 7.2-7.7v-3.6h-.1c-1.2 2.5-3.4 4.1-7.5 4.1-4.2 0-7.1-2.2-8.4-6-.6-1.8-.8-3.9-.8-6.9 0-3 .3-5.1.8-6.9 1.3-3.9 4.2-6.1 8.4-6.1 4.1 0 6.3 1.6 7.5 4.1h.1v-3.1c0-.3.2-.5.5-.5h1.8c.3 0 .5.2.5.5v24.2c0 7-3.8 10.5-10.1 10.5-3.5.2-6.9-1.4-8.2-3.5zm14.9-13.4c.5-1.4.6-3.1.6-5.8 0-2.6-.2-4.3-.6-5.8-1.1-3.2-3.4-4.4-6.3-4.4-3.1 0-5.2 1.5-6.2 4.4-.5 1.5-.7 3.3-.7 5.8s.2 4.3.7 5.8c1 2.9 3.1 4.4 6.2 4.4 2.9.1 5.3-1.3 6.3-4.4z"/><path class="st2" d="M32.8 35.8H14.3c-.9 0-1.7-.7-1.7-1.7V23.7c0-.9.7-1.7 1.7-1.7s1.7.7 1.7 1.7v8.8h15.2v-8.8c0-.9.7-1.7 1.7-1.7s1.7.7 1.7 1.7v10.4c-.1 1-.9 1.7-1.8 1.7zM10.1 21.2c-.5 0-1-.2-1.3-.7-.5-.7-.4-1.8.4-2.3l13.4-9.6c.6-.4 1.3-.4 1.9 0l13.4 9.6c.7.5.9 1.6.4 2.3-.5.7-1.6.9-2.3.4L23.5 12 11 20.9c-.2.2-.6.3-.9.3z"/><path class="st0" d="M43 35.8h-4.2c-.9 0-1.7-.7-1.7-1.7s.7-1.7 1.7-1.7h3.1c1.2-2.6 1.8-5.5 1.8-8.4 0-11.2-9.1-20.2-20.2-20.2S3.3 12.9 3.3 24c0 2.9.6 5.8 1.8 8.4h3.1c.9 0 1.7.7 1.7 1.7s-.7 1.7-1.7 1.7H4.1c-.6 0-1.2-.3-1.5-.9C.9 31.6 0 27.8 0 24 0 11 10.6.5 23.5.5S47.1 11.1 47.1 24c0 3.8-.9 7.5-2.6 10.9-.4.5-.9.9-1.5.9z"/></svg>