<svg id="Layer_1" data-name="Layer 1" xmlns="http://www.w3.org/2000/svg" viewBox="0 0 25.92 19.27"><defs><style>.cls-1{fill:none;stroke:#39a9db;stroke-miterlimit:10}</style></defs><title>icon-twitterArtboard 1</title><path class="cls-1" d="M24.54 3.1a2.43 2.43 0 0 1-2.23 0c.94-.56 1-1 1.32-2a9.1 9.1 0 0 1-2.89 1.1A4.55 4.55 0 0 0 13 6.35 12.9 12.9 0 0 1 3.64 1.6 4.55 4.55 0 0 0 5 7.67a4.53 4.53 0 0 1-2-.57v.06a4.55 4.55 0 0 0 3.65 4.46 4.56 4.56 0 0 1-2.05.08 4.55 4.55 0 0 0 4.25 3.16 9.14 9.14 0 0 1-6.75 1.87 12.87 12.87 0 0 0 7 2A12.84 12.84 0 0 0 22 5.84v-.59a9.72 9.72 0 0 0 2.54-2.15z"/></svg>