<svg id="Layer_1" data-name="Layer 1" xmlns="http://www.w3.org/2000/svg" viewBox="0 0 308.96 231.83"><defs><style>.cls-1{opacity:.6}.cls-2{fill:#fff}</style></defs><title>icon-blockquote-house-bg</title><g class="cls-1"><path class="cls-2" d="M215.36 231.83H93.6A10.85 10.85 0 0 1 82.75 221v-68.46a10.85 10.85 0 1 1 21.69 0v57.6h100.08v-57.6a10.85 10.85 0 1 1 21.69 0V221a10.85 10.85 0 0 1-10.85 10.83zm-149.1-95.72a10.85 10.85 0 0 1-6.32-19.67l88.23-63.11a10.85 10.85 0 0 1 12.62 0l88.21 63.1a10.85 10.85 0 0 1-12.62 17.64l-81.9-58.58-81.92 58.6a10.8 10.8 0 0 1-6.3 2.02z"/><path class="cls-2" d="M254.8 231.83a10.85 10.85 0 0 1-.19-21.69l20.64-.37A132.83 132.83 0 0 0 154.48 21.69 132.87 132.87 0 0 0 33.71 209.77l20.65.37a10.85 10.85 0 0 1-.36 21.69l-27.28-.49a10.85 10.85 0 0 1-9.44-5.85 154.48 154.48 0 1 1 274.45 0 10.84 10.84 0 0 1-9.64 5.86H282l-27 .49z"/></g></svg>