<svg id="Layer_1" data-name="Layer 1" xmlns="http://www.w3.org/2000/svg" viewBox="0 0 230.81 45.99"><defs><style>.cls-1{fill:#fff}.cls-2{fill:#39a9db}.cls-3{fill:#53dd6c}</style></defs><title>icon-logo-light</title><path class="cls-1" d="M75.69 35.94a.75.75 0 0 1-.79-.53l-6.9-14h-6.16a.28.28 0 0 0-.32.32v13.68a.5.5 0 0 1-.53.53h-5.18a.5.5 0 0 1-.53-.53V.53a.5.5 0 0 1 .53-.53h13.9c6.61 0 11.47 4.39 11.47 10.73a10.23 10.23 0 0 1-6.82 9.88l7.56 14.64a.42.42 0 0 1-.37.69zM75 10.73c0-3.12-2.22-5.13-5.5-5.13h-7.66a.28.28 0 0 0-.32.32v9.57a.28.28 0 0 0 .32.32h7.66c3.28-.01 5.5-2.01 5.5-5.08zm23.84 25.21a.5.5 0 0 1-.53-.53v-1.85h-.05c-1.22 1.74-3.59 3-7.19 3-4.65 0-8.56-2.43-8.56-7.77 0-5.55 3.91-8.09 10.2-8.09h5.18a.28.28 0 0 0 .32-.32v-1.25c0-2.91-1.37-4.23-5.66-4.23a8.93 8.93 0 0 0-5.81 1.74.47.47 0 0 1-.74-.11l-2-3.49a.49.49 0 0 1 .11-.69c2.06-1.48 4.86-2.48 9-2.48 7.77 0 10.62 2.64 10.62 8.88v16.66a.5.5 0 0 1-.53.53zm-.63-8.56v-2a.28.28 0 0 0-.32-.32h-4.23c-3.81 0-5.5 1.06-5.5 3.44 0 2.11 1.53 3.17 4.39 3.17 3.64.04 5.65-1.38 5.65-4.29zm17.38 8.88c-5.13 0-7.08-2.48-7.08-7.45V15.38a.28.28 0 0 0-.32-.32h-1.69a.5.5 0 0 1-.53-.53V11a.5.5 0 0 1 .53-.53h1.69a.28.28 0 0 0 .32-.32v-7a.5.5 0 0 1 .53-.53h4.86a.5.5 0 0 1 .53.53v7a.28.28 0 0 0 .32.32h3.38a.5.5 0 0 1 .53.53v3.54a.5.5 0 0 1-.53.53h-3.38a.28.28 0 0 0-.32.32V28.6c0 1.8.74 2.38 2.38 2.38h1.32a.5.5 0 0 1 .53.53v4.23a.5.5 0 0 1-.53.53zm5.87-6.82a19.76 19.76 0 0 1-.9-6.24 20.29 20.29 0 0 1 .85-6.29c1.43-4.44 5.34-7 10.41-7 5.23 0 9 2.7 10.47 7 .58 1.8.85 3.54.85 7.66a.52.52 0 0 1-.58.53h-15.7a.28.28 0 0 0-.32.32 5.6 5.6 0 0 0 .37 2 5.57 5.57 0 0 0 5.71 3.86 7.68 7.68 0 0 0 6-2.43.54.54 0 0 1 .79-.11l3.12 2.75a.47.47 0 0 1 .05.74c-2.17 2.54-5.76 4.33-10.47 4.33-5.42-.04-9.23-2.68-10.65-7.12zm15.38-11.26a5.44 5.44 0 0 0-10 0 6.45 6.45 0 0 0-.32 2.17.28.28 0 0 0 .32.32h10a.28.28 0 0 0 .32-.32 6.47 6.47 0 0 0-.32-2.17z"/><path class="cls-2" d="M150.05 35.94a.5.5 0 0 1-.53-.53V.53a.5.5 0 0 1 .53-.53h12c6.87 0 11 3.91 11 10.2s-4.18 10.15-11 10.15h-9.2a.28.28 0 0 0-.32.32v14.74a.5.5 0 0 1-.53.53zm20-25.74c0-4.6-2.85-7.35-8.14-7.35h-9.09a.28.28 0 0 0-.32.32v14a.28.28 0 0 0 .32.32h9.09c5.32.01 8.17-2.69 8.17-7.29zm12.29 25.9c-3.81 0-5.23-1.74-5.23-5.92V.53a.5.5 0 0 1 .53-.53h1.8a.5.5 0 0 1 .53.53v29.55c0 2.48.79 3.28 2.7 3.28h.9a.5.5 0 0 1 .53.53v1.69a.5.5 0 0 1-.53.53zm21.73-.16a.5.5 0 0 1-.53-.53v-3h-.05c-1.27 2.48-3.91 4-7.35 4-5.6 0-8.72-3.49-8.72-9.57V11.26a.5.5 0 0 1 .53-.53h1.8a.5.5 0 0 1 .53.53v14.9c0 5.07 2.11 7.56 6.5 7.56 3.81 0 6.77-2.64 6.77-7V11.26a.5.5 0 0 1 .53-.53h1.8a.5.5 0 0 1 .53.53v24.15a.5.5 0 0 1-.53.53zm8.3 6.4a.52.52 0 0 1 .11-.74l1.32-1.16a.48.48 0 0 1 .74.11 8 8 0 0 0 6.24 2.7c4.49 0 7.19-2.22 7.19-7.66v-3.66h-.05c-1.16 2.48-3.38 4.12-7.45 4.12a8.24 8.24 0 0 1-8.4-6 21.82 21.82 0 0 1-.85-6.87 21.82 21.82 0 0 1 .85-6.87 8.29 8.29 0 0 1 8.4-6.08c4.07 0 6.29 1.64 7.45 4.12h.08v-3.09a.5.5 0 0 1 .53-.53h1.8a.5.5 0 0 1 .53.53v24.21c0 7-3.81 10.52-10.1 10.52-3.69.01-7.02-1.59-8.39-3.65zm15-13.43a18.19 18.19 0 0 0 .63-5.76 18.19 18.19 0 0 0-.63-5.76 6.08 6.08 0 0 0-6.37-4.44 6 6 0 0 0-6.18 4.39 17.27 17.27 0 0 0-.74 5.81 16.93 16.93 0 0 0 .74 5.76 6 6 0 0 0 6.18 4.44 6.14 6.14 0 0 0 6.32-4.44z"/><path class="cls-3" d="M32.8 35.8H14.25a1.65 1.65 0 0 1-1.65-1.65V23.73a1.65 1.65 0 1 1 3.3 0v8.77h15.25v-8.77a1.65 1.65 0 1 1 3.3 0v10.42a1.65 1.65 0 0 1-1.65 1.65zM10.09 21.23a1.65 1.65 0 0 1-1-3l13.48-9.61a1.65 1.65 0 0 1 1.92 0l13.44 9.61A1.65 1.65 0 1 1 36 20.92L23.53 12l-12.48 8.92a1.64 1.64 0 0 1-.96.31z"/><path class="cls-1" d="M43 35.77h-4.19a1.65 1.65 0 0 1 0-3.3h3.12A20.23 20.23 0 1 0 3.3 24a20.41 20.41 0 0 0 1.82 8.44h3.13a1.65 1.65 0 0 1 0 3.3H4.09a1.65 1.65 0 0 1-1.47-.89A23.54 23.54 0 1 1 47.05 24a23.67 23.67 0 0 1-2.63 10.85 1.65 1.65 0 0 1-1.42.92z"/></svg>